<?xml version="1.0" encoding="UTF-8"?>
<svg xmlns="http://www.w3.org/2000/svg" xmlns:xlink="http://www.w3.org/1999/xlink" width="375pt" height="374.999991pt" viewBox="0 0 375 374.999991" version="1.2">
<defs>
<clipPath id="clip1">
  <path d="M 57.585938 76 L 316.773438 76 L 316.773438 370.984375 L 57.585938 370.984375 Z M 57.585938 76 "/>
</clipPath>
<clipPath id="clip2">
  <path d="M 118 4.289062 L 158 4.289062 L 158 54 L 118 54 Z M 118 4.289062 "/>
</clipPath>
<clipPath id="clip3">
  <path d="M 165 4.289062 L 206 4.289062 L 206 55 L 165 55 Z M 165 4.289062 "/>
</clipPath>
<clipPath id="clip4">
  <path d="M 212 4.289062 L 253 4.289062 L 253 55 L 212 55 Z M 212 4.289062 "/>
</clipPath>
</defs>
<g id="surface1">
<g clip-path="url(#clip1)" clip-rule="nonzero">
<path style=" stroke:none;fill-rule:nonzero;fill:rgb(14.898682%,30.198669%,89.408875%);fill-opacity:1;" d="M 187.066406 370.515625 L 81.21875 341.089844 L 57.632812 76.128906 L 316.816406 76.125 L 293.214844 341.046875 L 187.074219 370.511719 Z M 187.066406 370.515625 "/>
</g>
<path style=" stroke:none;fill-rule:nonzero;fill:rgb(16.079712%,39.608765%,94.509888%);fill-opacity:1;" d="M 273.003906 324.179688 L 293.179688 97.792969 L 187.230469 97.789062 L 187.230469 347.988281 L 273.003906 324.175781 Z M 273.003906 324.179688 "/>
<path style=" stroke:none;fill-rule:nonzero;fill:rgb(92.158508%,92.158508%,92.158508%);fill-opacity:1;" d="M 111.710938 196.066406 L 114.617188 228.554688 L 187.230469 228.554688 L 187.230469 196.066406 Z M 111.710938 196.066406 "/>
<path style=" stroke:none;fill-rule:nonzero;fill:rgb(92.158508%,92.158508%,92.158508%);fill-opacity:1;" d="M 105.867188 130.28125 L 108.816406 162.78125 L 187.230469 162.78125 L 187.230469 130.28125 Z M 105.867188 130.28125 "/>
<path style=" stroke:none;fill-rule:nonzero;fill:rgb(92.158508%,92.158508%,92.158508%);fill-opacity:1;" d="M 187.230469 280.457031 L 187.089844 280.496094 L 150.949219 270.71875 L 148.640625 244.804688 L 116.066406 244.804688 L 120.613281 295.832031 L 187.078125 314.308594 L 187.230469 314.269531 Z M 187.230469 280.457031 "/>
<g clip-path="url(#clip2)" clip-rule="nonzero">
<path style=" stroke:none;fill-rule:nonzero;fill:rgb(0%,0%,0%);fill-opacity:1;" d="M 118.632812 4.121094 L 157.933594 4.121094 L 157.933594 20.578125 L 135.066406 20.578125 L 135.066406 37.039062 L 157.933594 37.039062 L 157.933594 53.496094 L 118.632812 53.496094 Z M 118.632812 4.121094 "/>
</g>
<g clip-path="url(#clip3)" clip-rule="nonzero">
<path style=" stroke:none;fill-rule:nonzero;fill:rgb(0%,0%,0%);fill-opacity:1;" d="M 165.792969 4.121094 L 205.09375 4.121094 L 205.09375 18.433594 L 182.230469 18.433594 L 182.230469 21.296875 L 205.09375 21.296875 L 205.09375 54.214844 L 165.792969 54.214844 L 165.792969 39.1875 L 188.664062 39.1875 L 188.664062 36.324219 L 165.792969 36.324219 Z M 165.792969 4.121094 "/>
</g>
<g clip-path="url(#clip4)" clip-rule="nonzero">
<path style=" stroke:none;fill-rule:nonzero;fill:rgb(0%,0%,0%);fill-opacity:1;" d="M 212.957031 4.121094 L 252.253906 4.121094 L 252.253906 18.433594 L 229.386719 18.433594 L 229.386719 21.296875 L 252.253906 21.296875 L 252.253906 54.214844 L 212.957031 54.214844 L 212.957031 39.1875 L 235.816406 39.1875 L 235.816406 36.324219 L 212.957031 36.324219 Z M 212.957031 4.121094 "/>
</g>
<path style=" stroke:none;fill-rule:nonzero;fill:rgb(100%,100%,100%);fill-opacity:1;" d="M 262.546875 196.066406 L 268.398438 130.28125 L 187.117188 130.28125 L 187.117188 162.78125 L 232.839844 162.78125 L 229.894531 196.066406 L 187.117188 196.066406 L 187.117188 228.554688 L 227.078125 228.554688 L 223.308594 270.699219 L 187.117188 280.488281 L 187.117188 314.289062 L 253.636719 295.832031 L 254.125 290.335938 L 261.753906 204.785156 Z M 262.546875 196.066406 "/>
</g>
</svg>
