<?xml version="1.0" encoding="UTF-8"?>
<svg xmlns="http://www.w3.org/2000/svg" xmlns:xlink="http://www.w3.org/1999/xlink" width="375pt" height="374.999991pt" viewBox="0 0 375 374.999991" version="1.2">
<g id="surface1">
<path style=" stroke:none;fill-rule:evenodd;fill:rgb(39.99939%,73.329163%,41.569519%);fill-opacity:1;" d="M 325.183594 110.792969 L 197.589844 188.5625 L 196.363281 189.308594 L 195.195312 188.492188 L 83.714844 110.847656 L 83.714844 175.71875 C 86.929688 175.042969 90.261719 174.6875 93.675781 174.6875 C 120.324219 174.6875 141.925781 196.289062 141.925781 222.9375 C 141.925781 227.09375 141.398438 231.132812 140.410156 234.984375 L 325.183594 234.984375 Z M 87.613281 108.214844 L 320.992188 108.214844 L 196.53125 184.074219 L 87.613281 108.214844 "/>
<path style=" stroke:none;fill-rule:evenodd;fill:rgb(39.99939%,73.329163%,41.569519%);fill-opacity:1;" d="M 89.617188 232.324219 C 88.207031 232.324219 86.988281 231.695312 85.949219 230.433594 C 84.914062 229.164062 84.390625 227.457031 84.390625 225.308594 C 84.390625 222.5625 85.195312 219.851562 86.8125 217.152344 C 88.421875 214.453125 90.4375 213.105469 92.851562 213.105469 C 94.4375 213.105469 95.773438 213.710938 96.859375 214.933594 C 97.945312 216.140625 98.484375 217.859375 98.484375 220.082031 C 98.484375 223.28125 97.554688 226.128906 95.6875 228.609375 C 93.832031 231.089844 91.808594 232.324219 89.617188 232.324219 Z M 116.6875 235.410156 C 114.9375 238.703125 112.203125 241.339844 108.476562 243.324219 C 104.746094 245.304688 100.332031 246.300781 95.230469 246.300781 C 87.394531 246.300781 81.339844 244.308594 77.066406 240.335938 C 72.796875 236.355469 70.664062 231.0625 70.664062 224.453125 C 70.664062 220.257812 71.609375 216.175781 73.507812 212.21875 C 75.402344 208.253906 78.152344 205.160156 81.769531 202.921875 C 85.378906 200.691406 89.691406 199.570312 94.695312 199.570312 C 100.996094 199.570312 106.039062 201.429688 109.820312 205.136719 C 113.605469 208.84375 115.496094 213.304688 115.496094 218.523438 C 115.496094 223.109375 113.960938 227.15625 110.890625 230.675781 C 107.824219 234.191406 104.480469 235.949219 100.871094 235.949219 C 97.871094 235.949219 96.3125 234.589844 96.179688 231.867188 C 93.832031 234.554688 91.34375 235.898438 88.722656 235.898438 C 86.242188 235.898438 84.152344 234.847656 82.457031 232.738281 C 80.765625 230.632812 79.921875 228.0625 79.921875 225.007812 C 79.921875 221.203125 81.207031 217.675781 83.769531 214.417969 C 86.339844 211.15625 89.253906 209.53125 92.511719 209.53125 C 95.589844 209.53125 98.042969 211.023438 99.867188 214.003906 L 100.722656 210.210938 L 105.042969 210.210938 C 102.664062 221.410156 101.371094 227.4375 101.144531 228.300781 C 100.929688 229.171875 100.824219 229.828125 100.824219 230.285156 C 100.824219 230.808594 101.003906 231.203125 101.371094 231.488281 C 101.734375 231.769531 102.109375 231.910156 102.5 231.910156 C 103.519531 231.910156 104.820312 231.289062 106.40625 230.042969 C 107.996094 228.792969 109.308594 227.140625 110.34375 225.082031 C 111.382812 223.027344 111.902344 220.8125 111.902344 218.421875 C 111.902344 213.933594 110.226562 210.261719 106.886719 207.390625 C 103.535156 204.53125 99.414062 203.097656 94.503906 203.097656 C 88.554688 203.097656 83.695312 205.117188 79.914062 209.167969 C 76.128906 213.214844 74.238281 218.183594 74.238281 224.0625 C 74.238281 230.109375 76.128906 234.730469 79.914062 237.921875 C 83.695312 241.125 88.78125 242.726562 95.183594 242.726562 C 99.089844 242.726562 102.507812 242.078125 105.449219 240.785156 C 108.386719 239.484375 110.675781 237.699219 112.308594 235.410156 Z M 93.675781 266.789062 C 117.898438 266.789062 137.53125 247.15625 137.53125 222.9375 C 137.53125 198.714844 117.898438 179.082031 93.675781 179.082031 C 69.457031 179.082031 49.820312 198.714844 49.820312 222.9375 C 49.820312 247.15625 69.457031 266.789062 93.675781 266.789062 "/>
</g>
</svg>
