<?xml version="1.0" encoding="UTF-8"?>
<svg xmlns="http://www.w3.org/2000/svg" xmlns:xlink="http://www.w3.org/1999/xlink" width="375pt" height="374.999991pt" viewBox="0 0 375 374.999991" version="1.2">
<defs>
<clipPath id="clip1">
  <path d="M 101.589844 2 L 273.195312 2 L 273.195312 373 L 101.589844 373 Z M 101.589844 2 "/>
</clipPath>
</defs>
<g id="surface1">
<g clip-path="url(#clip1)" clip-rule="nonzero">
<path style=" stroke:none;fill-rule:nonzero;fill:rgb(255, 255, 255, 0.5);fill-opacity:1;" d="M 273.425781 122.199219 L 214.839844 122.199219 L 214.839844 83.726562 C 214.839844 69.273438 224.402344 65.910156 231.136719 65.910156 C 237.855469 65.910156 272.484375 65.910156 272.484375 65.910156 L 272.484375 2.398438 L 215.546875 2.183594 C 152.347656 2.183594 137.964844 49.554688 137.964844 79.867188 L 137.964844 122.207031 L 101.417969 122.207031 L 101.417969 187.652344 L 137.964844 187.652344 C 137.964844 271.636719 137.964844 372.847656 137.964844 372.847656 L 214.839844 372.847656 C 214.839844 372.847656 214.839844 270.648438 214.839844 187.652344 L 266.722656 187.652344 Z M 273.425781 122.199219 "/>
</g>
</g>
</svg>
