<?xml version="1.0" encoding="UTF-8"?>
<svg xmlns="http://www.w3.org/2000/svg" xmlns:xlink="http://www.w3.org/1999/xlink" width="375pt" height="374.999991pt" viewBox="0 0 375 374.999991" version="1.2">
<defs>
<clipPath id="clip1">
  <path d="M 5.378906 9 L 369.878906 9 L 369.878906 365 L 5.378906 365 Z M 5.378906 9 "/>
</clipPath>
</defs>
<g id="surface1">
<g clip-path="url(#clip1)" clip-rule="nonzero">
<path style=" stroke:none;fill-rule:evenodd;fill:rgb(255, 255, 255, 0.5);fill-opacity:1;" d="M 187.75 9.179688 C 87.042969 9.179688 5.378906 90.84375 5.378906 191.582031 C 5.378906 272.148438 57.632812 340.511719 130.117188 364.632812 C 139.234375 366.304688 142.566406 360.683594 142.566406 355.847656 C 142.566406 351.515625 142.414062 340.042969 142.320312 324.828125 C 91.589844 335.847656 80.886719 300.375 80.886719 300.375 C 72.589844 279.308594 60.644531 273.699219 60.644531 273.699219 C 44.078125 262.375 61.890625 262.621094 61.890625 262.621094 C 80.1875 263.910156 89.824219 281.421875 89.824219 281.421875 C 106.085938 309.292969 132.519531 301.238281 142.898438 296.574219 C 144.554688 284.792969 149.265625 276.753906 154.480469 272.195312 C 113.976562 267.589844 71.402344 251.949219 71.402344 182.050781 C 71.402344 162.140625 78.515625 145.863281 90.175781 133.109375 C 88.304688 128.492188 82.042969 109.949219 91.96875 84.839844 C 91.96875 84.839844 107.289062 79.929688 142.125 103.535156 C 156.667969 99.492188 172.277344 97.46875 187.78125 97.394531 C 203.269531 97.46875 218.878906 99.492188 233.4375 103.535156 C 268.257812 79.929688 283.546875 84.839844 283.546875 84.839844 C 293.503906 109.949219 287.242188 128.492188 285.355469 133.109375 C 297.042969 145.863281 304.097656 162.140625 304.097656 182.050781 C 304.097656 252.117188 261.449219 267.527344 220.824219 272.042969 C 227.375 277.667969 233.210938 288.808594 233.210938 305.8125 C 233.210938 330.191406 232.980469 349.859375 232.980469 355.847656 C 232.980469 360.726562 236.265625 366.394531 245.519531 364.617188 C 317.941406 340.4375 370.152344 272.132812 370.152344 191.582031 C 370.152344 90.84375 288.488281 9.179688 187.75 9.179688 Z M 187.75 9.179688 "/>
</g>
</g>
</svg>
