<?xml version="1.0" encoding="UTF-8"?>
<svg xmlns="http://www.w3.org/2000/svg" xmlns:xlink="http://www.w3.org/1999/xlink" width="375pt" height="374.999991pt" viewBox="0 0 375 374.999991" version="1.2">
<defs>
<clipPath id="clip1">
  <path d="M 5.765625 51.367188 L 369.515625 51.367188 L 369.515625 323.109375 L 5.765625 323.109375 Z M 5.765625 51.367188 "/>
</clipPath>
</defs>
<g id="surface1">
<g clip-path="url(#clip1)" clip-rule="nonzero">
<path style=" stroke:none;fill-rule:nonzero;fill:rgb(255, 255, 255, 0.5);fill-opacity:1;" d="M 340.410156 323.109375 L 318.601562 323.109375 C 314.414062 323.109375 311.015625 319.726562 311.015625 315.558594 L 311.015625 135.929688 L 192.15625 219.710938 C 189.519531 221.550781 186.027344 221.550781 183.390625 219.710938 L 64.546875 135.929688 L 64.546875 315.558594 C 64.546875 319.726562 61.148438 323.109375 56.960938 323.109375 L 35.164062 323.109375 C 18.675781 323.109375 5.769531 310.390625 5.769531 294.152344 L 5.769531 80.160156 C 5.769531 72.242188 8.800781 64.917969 14.292969 59.539062 C 19.695312 54.175781 27.109375 51.199219 35.164062 51.199219 L 42.429688 51.199219 C 44.007812 51.199219 45.554688 51.699219 46.84375 52.605469 L 187.789062 152.894531 L 328.734375 52.605469 C 330.023438 51.699219 331.570312 51.199219 333.144531 51.199219 L 340.410156 51.199219 C 348.40625 51.199219 355.839844 54.160156 361.285156 59.554688 C 366.773438 64.886719 369.808594 72.210938 369.808594 80.160156 L 369.808594 294.167969 C 369.808594 310.390625 356.898438 323.109375 340.410156 323.109375 Z M 326.199219 308.003906 L 340.425781 308.003906 C 348.527344 308.003906 354.640625 302.054688 354.640625 294.152344 L 354.640625 80.160156 C 354.640625 76.320312 353.230469 72.832031 350.652344 70.324219 C 348.011719 67.726562 344.386719 66.304688 340.410156 66.304688 L 335.574219 66.304688 L 192.203125 168.332031 C 189.5625 170.207031 186.015625 170.207031 183.375 168.332031 L 40.003906 66.304688 L 35.164062 66.304688 C 31.160156 66.304688 27.550781 67.710938 24.988281 70.265625 C 22.363281 72.832031 20.9375 76.320312 20.9375 80.160156 L 20.9375 294.167969 C 20.9375 302.1875 26.929688 308.003906 35.164062 308.003906 L 49.394531 308.003906 L 49.394531 121.339844 C 49.394531 118.511719 50.96875 115.929688 53.503906 114.632812 C 56.023438 113.332031 59.054688 113.542969 61.375 115.175781 L 187.820312 204.300781 L 314.261719 115.175781 C 316.566406 113.558594 319.617188 113.332031 322.132812 114.632812 C 324.652344 115.914062 326.246094 118.511719 326.246094 121.339844 L 326.246094 308.003906 Z M 326.199219 308.003906 "/>
</g>
</g>
</svg>
