<?xml version="1.0" encoding="UTF-8"?>
<svg xmlns="http://www.w3.org/2000/svg" xmlns:xlink="http://www.w3.org/1999/xlink" width="375pt" height="374.999991pt" viewBox="0 0 375 374.999991" version="1.2">
<defs>
<clipPath id="clip1">
  <path d="M 58 76 L 316.46875 76 L 316.46875 370.109375 L 58 370.109375 Z M 58 76 "/>
</clipPath>
<clipPath id="clip2">
  <path d="M 82 4.859375 L 131 4.859375 L 131 55 L 82 55 Z M 82 4.859375 "/>
</clipPath>
<clipPath id="clip3">
  <path d="M 137 4.859375 L 183 4.859375 L 183 55 L 137 55 Z M 137 4.859375 "/>
</clipPath>
<clipPath id="clip4">
  <path d="M 189 4.859375 L 246 4.859375 L 246 55 L 189 55 Z M 189 4.859375 "/>
</clipPath>
<clipPath id="clip5">
  <path d="M 253 4.859375 L 293 4.859375 L 293 55 L 253 55 Z M 253 4.859375 "/>
</clipPath>
</defs>
<g id="surface1">
<g clip-path="url(#clip1)" clip-rule="nonzero">
<path style=" stroke:none;fill-rule:nonzero;fill:rgb(89.408875%,30.198669%,14.898682%);fill-opacity:1;" d="M 316.519531 76.621094 L 292.972656 341.300781 L 187.117188 370.742188 L 81.558594 341.339844 L 58.035156 76.621094 L 316.515625 76.617188 L 316.527344 76.617188 Z M 316.519531 76.621094 "/>
</g>
<path style=" stroke:none;fill-rule:nonzero;fill:rgb(94.509888%,39.608765%,16.079712%);fill-opacity:1;" d="M 187.28125 348.238281 L 272.820312 324.449219 L 292.941406 98.265625 L 187.28125 98.265625 Z M 187.28125 348.238281 "/>
<path style=" stroke:none;fill-rule:nonzero;fill:rgb(92.158508%,92.158508%,92.158508%);fill-opacity:1;" d="M 141.503906 163.195312 L 187.28125 163.195312 L 187.28125 130.726562 L 106.136719 130.726562 L 106.910156 139.4375 L 114.863281 228.910156 L 187.28125 228.910156 L 187.28125 196.449219 L 144.460938 196.449219 Z M 141.503906 163.195312 "/>
<path style=" stroke:none;fill-rule:nonzero;fill:rgb(92.158508%,92.158508%,92.158508%);fill-opacity:1;" d="M 148.796875 245.144531 L 116.3125 245.144531 L 120.84375 296.128906 L 187.128906 314.589844 L 187.28125 314.546875 L 187.28125 280.765625 L 187.140625 280.808594 L 151.101562 271.039062 Z M 148.796875 245.144531 "/>
<g clip-path="url(#clip2)" clip-rule="nonzero">
<path style=" stroke:none;fill-rule:nonzero;fill:rgb(255,255,255);fill-opacity:1;" d="M 82.085938 4.679688 L 98.53125 4.679688 L 98.53125 20.980469 L 113.574219 20.980469 L 113.574219 4.679688 L 130.019531 4.679688 L 130.019531 54.042969 L 113.574219 54.042969 L 113.574219 37.511719 L 98.53125 37.511719 L 98.53125 54.042969 L 82.085938 54.042969 Z M 82.085938 4.679688 "/>
</g>
<g clip-path="url(#clip3)" clip-rule="nonzero">
<path style=" stroke:none;fill-rule:nonzero;fill:rgb(255,255,255);fill-opacity:1;" d="M 151.644531 21.050781 L 137.167969 21.050781 L 137.167969 4.679688 L 182.578125 4.679688 L 182.578125 21.050781 L 168.089844 21.050781 L 168.089844 54.042969 L 151.648438 54.042969 L 151.648438 21.050781 Z M 151.644531 21.050781 "/>
</g>
<g clip-path="url(#clip4)" clip-rule="nonzero">
<path style=" stroke:none;fill-rule:nonzero;fill:rgb(255,255,255);fill-opacity:1;" d="M 189.785156 4.679688 L 206.929688 4.679688 L 217.476562 22.023438 L 228.015625 4.679688 L 245.167969 4.679688 L 245.167969 54.042969 L 228.792969 54.042969 L 228.792969 29.574219 L 217.476562 47.125 L 217.191406 47.125 L 205.875 29.574219 L 205.875 54.042969 L 189.785156 54.042969 Z M 189.785156 4.679688 "/>
</g>
<g clip-path="url(#clip5)" clip-rule="nonzero">
<path style=" stroke:none;fill-rule:nonzero;fill:rgb(255,255,255);fill-opacity:1;" d="M 253.355469 4.679688 L 269.800781 4.679688 L 269.800781 37.726562 L 292.933594 37.726562 L 292.933594 54.042969 L 253.355469 54.042969 Z M 253.355469 4.679688 "/>
</g>
<path style=" stroke:none;fill-rule:nonzero;fill:rgb(100%,100%,100%);fill-opacity:1;" d="M 187.167969 228.910156 L 227.019531 228.910156 L 223.261719 271.015625 L 187.167969 280.796875 L 187.167969 314.570312 L 253.507812 296.128906 L 253.992188 290.636719 L 261.601562 205.164062 L 262.394531 196.449219 L 187.167969 196.449219 Z M 187.167969 228.910156 "/>
<path style=" stroke:none;fill-rule:nonzero;fill:rgb(100%,100%,100%);fill-opacity:1;" d="M 187.167969 163.117188 L 187.167969 163.195312 L 265.332031 163.195312 L 265.980469 155.898438 L 267.460938 139.4375 L 268.230469 130.726562 L 187.167969 130.726562 Z M 187.167969 163.117188 "/>
</g>
</svg>
