<?xml version="1.0" encoding="UTF-8"?>
<svg xmlns="http://www.w3.org/2000/svg" xmlns:xlink="http://www.w3.org/1999/xlink" width="375pt" height="374.999991pt" viewBox="0 0 375 374.999991" version="1.2">
<defs>
<clipPath id="clip1">
  <path d="M 13.425781 13.425781 L 361.285156 13.425781 L 361.285156 361.285156 L 13.425781 361.285156 Z M 13.425781 13.425781 "/>
</clipPath>
</defs>
<g id="surface1">
<path style=" stroke:none;fill-rule:nonzero;fill:rgb(255, 255, 255, 0.5);fill-opacity:1;" d="M 187.355469 102.386719 C 140.503906 102.386719 102.386719 140.503906 102.386719 187.355469 C 102.386719 234.207031 140.503906 272.320312 187.355469 272.320312 C 234.207031 272.320312 272.320312 234.207031 272.320312 187.355469 C 272.320312 140.503906 234.203125 102.386719 187.355469 102.386719 Z M 187.355469 260.324219 C 147.117188 260.324219 114.382812 227.589844 114.382812 187.355469 C 114.382812 147.117188 147.117188 114.382812 187.355469 114.382812 C 227.589844 114.382812 260.324219 147.117188 260.324219 187.355469 C 260.324219 227.589844 227.589844 260.324219 187.355469 260.324219 Z M 187.355469 260.324219 "/>
<g clip-path="url(#clip1)" clip-rule="nonzero">
<path style=" stroke:none;fill-rule:nonzero;fill:rgb(255, 255, 255, 0.5);fill-opacity:1;" d="M 244.332031 13.425781 L 130.378906 13.425781 C 65.890625 13.425781 13.425781 65.890625 13.425781 130.378906 L 13.425781 244.332031 C 13.425781 308.820312 65.890625 361.285156 130.378906 361.285156 L 244.332031 361.285156 C 308.820312 361.285156 361.285156 308.820312 361.285156 244.332031 L 361.285156 130.378906 C 361.285156 65.890625 308.820312 13.425781 244.332031 13.425781 Z M 349.289062 244.332031 C 349.289062 302.203125 302.203125 349.289062 244.332031 349.289062 L 130.378906 349.289062 C 72.503906 349.289062 25.417969 302.203125 25.417969 244.332031 L 25.417969 130.378906 C 25.417969 72.503906 72.503906 25.417969 130.378906 25.417969 L 244.332031 25.417969 C 302.203125 25.417969 349.289062 72.503906 349.289062 130.378906 Z M 349.289062 244.332031 "/>
</g>
<path style=" stroke:none;fill-rule:nonzero;fill:rgb(255, 255, 255, 0.5);fill-opacity:1;" d="M 282.316406 64.902344 C 267.160156 64.902344 254.828125 77.234375 254.828125 92.394531 C 254.828125 107.550781 267.15625 119.882812 282.316406 119.882812 C 297.476562 119.882812 309.804688 107.550781 309.804688 92.394531 C 309.804688 77.234375 297.472656 64.902344 282.316406 64.902344 Z M 282.316406 107.886719 C 273.773438 107.886719 266.824219 100.9375 266.824219 92.394531 C 266.824219 83.851562 273.773438 76.898438 282.316406 76.898438 C 290.859375 76.898438 297.808594 83.851562 297.808594 92.394531 C 297.808594 100.9375 290.859375 107.886719 282.316406 107.886719 Z M 282.316406 107.886719 "/>
</g>
</svg>
