<?xml version="1.0" encoding="UTF-8"?>
<svg xmlns="http://www.w3.org/2000/svg" xmlns:xlink="http://www.w3.org/1999/xlink" width="375pt" height="374.999991pt" viewBox="0 0 375 374.999991" version="1.2">
<defs>
<clipPath id="clip1">
  <path d="M 4.964844 32.777344 L 370 32.777344 L 370 342.398438 L 4.964844 342.398438 Z M 4.964844 32.777344 "/>
</clipPath>
</defs>
<g id="surface1">
<g clip-path="url(#clip1)" clip-rule="nonzero">
<path style=" stroke:none;fill-rule:nonzero;fill:rgb(255, 255, 255, 0.5);fill-opacity:1;" d="M 368.230469 110.542969 C 366.4375 107.699219 362.972656 106.359375 359.746094 107.3125 C 353.734375 109.074219 346.089844 110.667969 337.054688 112.0625 C 345.429688 107.792969 352.101562 103.1875 356.867188 98.421875 C 359.453125 95.835938 359.800781 91.785156 357.710938 88.792969 C 355.621094 85.804688 351.679688 84.761719 348.382812 86.300781 C 339.636719 90.410156 330.105469 92.515625 320.0625 92.570312 C 302.960938 55.882812 272.425781 42.292969 271.253906 41.800781 C 252.609375 33.328125 234.851562 30.796875 218.976562 34.316406 C 176.453125 43.761719 157.003906 94.367188 163.367188 135.828125 C 152.058594 135.039062 91.84375 128.988281 16.183594 86.007812 C 13.835938 84.667969 10.957031 84.707031 8.628906 86.082031 C 6.320312 87.472656 4.910156 89.988281 4.964844 92.683594 C 5.84375 137.570312 46.828125 159.003906 64.425781 166.117188 C 60.703125 166.503906 54.984375 166.59375 49.429688 166.355469 C 46.09375 166.210938 43.015625 168.335938 41.988281 171.546875 C 40.945312 174.753906 42.171875 178.257812 44.957031 180.109375 C 57.277344 188.324219 69.613281 193.695312 81.636719 196.117188 C 79.03125 196.300781 76.339844 196.410156 73.699219 196.5 C 70.34375 196.613281 67.46875 198.921875 66.660156 202.167969 C 65.835938 205.414062 67.265625 208.824219 70.160156 210.492188 C 81.414062 217.039062 98.882812 224.832031 118.277344 224.832031 L 119.667969 224.8125 C 117.523438 225.601562 115.125 226.296875 112.519531 226.882812 C 111.714844 227.050781 110.925781 227.214844 110.121094 227.363281 C 106.726562 228.003906 104.21875 230.863281 104.015625 234.3125 C 103.8125 237.757812 105.976562 240.894531 109.257812 241.921875 C 123.519531 246.375 136.824219 247.402344 148.117188 244.890625 C 150.242188 244.414062 152.351562 243.808594 154.347656 243.074219 L 154.367188 243.074219 C 154.054688 254.589844 147.988281 293.335938 82.882812 307.800781 L 82.019531 307.984375 C 77.953125 308.902344 69.300781 309.949219 58.359375 309.949219 C 53.847656 309.949219 49.339844 309.78125 44.921875 309.433594 C 41.292969 309.121094 37.992188 311.507812 37.078125 315.027344 C 36.160156 318.546875 37.882812 322.214844 41.183594 323.738281 C 66.128906 335.269531 93.53125 341.578125 122.621094 342.457031 C 122.710938 342.457031 122.785156 342.457031 122.859375 342.457031 C 138.457031 342.457031 154.054688 340.753906 169.230469 337.378906 C 197.054688 331.199219 224.074219 319.316406 249.550781 302.101562 L 249.570312 302.101562 C 250.136719 301.878906 250.667969 301.585938 251.164062 301.257812 C 287.4375 276.226562 314.105469 241.1875 330.457031 197.125 C 330.511719 196.976562 330.566406 196.832031 330.621094 196.667969 C 337.21875 174.609375 339.511719 154.660156 337.421875 137.386719 C 350.304688 133.222656 360.386719 127.246094 367.390625 119.582031 C 369.660156 117.105469 370.011719 113.421875 368.230469 110.542969 Z M 368.230469 110.542969 "/>
</g>
</g>
</svg>
